<svg width="31" height="31" viewBox="0 0 31 31" fill="none" xmlns="http://www.w3.org/2000/svg">
<path d="M17.6313 28.4167H13.3688C13.132 28.4167 12.9221 28.3413 12.7391 28.1906C12.5561 28.0399 12.4431 27.8462 12.4001 27.6094L11.8834 24.3479C11.4744 24.1972 11.0438 23.9927 10.5917 23.7344C10.1396 23.4761 9.74138 23.207 9.39694 22.9271L6.39382 24.3156C6.15701 24.4233 5.9202 24.4394 5.6834 24.3641C5.44659 24.2887 5.26361 24.1326 5.13444 23.8958L3.00319 20.1177C2.87402 19.9024 2.84173 19.6764 2.90632 19.4396C2.9709 19.2028 3.10007 19.009 3.29382 18.8583L6.0709 16.824C6.02784 16.6302 6.00093 16.4096 5.99017 16.162C5.97941 15.9144 5.97402 15.6938 5.97402 15.5C5.97402 15.3063 5.97941 15.0856 5.99017 14.838C6.00093 14.5905 6.02784 14.3698 6.0709 14.1761L3.29382 12.1417C3.10007 11.991 2.9709 11.7972 2.90632 11.5604C2.84173 11.3236 2.87402 11.0976 3.00319 10.8823L5.13444 7.10418C5.26361 6.86737 5.44659 6.71129 5.6834 6.63595C5.9202 6.5606 6.15701 6.57675 6.39382 6.68438L9.39694 8.07293C9.74138 7.79307 10.1396 7.52397 10.5917 7.26564C11.0438 7.0073 11.4744 6.81355 11.8834 6.68438L12.4001 3.39064C12.4431 3.15383 12.5561 2.96008 12.7391 2.80939C12.9221 2.65869 13.132 2.58334 13.3688 2.58334H17.6313C17.8681 2.58334 18.078 2.65869 18.261 2.80939C18.444 2.96008 18.557 3.15383 18.6001 3.39064L19.1167 6.65209C19.5258 6.80279 19.9617 7.00192 20.4245 7.24949C20.8874 7.49706 21.2803 7.77154 21.6032 8.07293L24.6063 6.68438C24.8431 6.57675 25.0799 6.5606 25.3167 6.63595C25.5535 6.71129 25.7365 6.86737 25.8657 7.10418L27.9969 10.85C28.1261 11.0653 28.1638 11.2967 28.11 11.5443C28.0561 11.7919 27.9216 11.991 27.7063 12.1417L24.9292 14.1115C24.9723 14.3267 24.9992 14.5582 25.01 14.8057C25.0207 15.0533 25.0261 15.2847 25.0261 15.5C25.0261 15.7153 25.0207 15.9413 25.01 16.1781C24.9992 16.4149 24.9723 16.641 24.9292 16.8563L27.7063 18.8583C27.9001 19.009 28.0292 19.2028 28.0938 19.4396C28.1584 19.6764 28.1261 19.9024 27.9969 20.1177L25.8657 23.8958C25.7365 24.1326 25.5535 24.2887 25.3167 24.3641C25.0799 24.4394 24.8431 24.4233 24.6063 24.3156L21.6032 22.9271C21.2587 23.207 20.8659 23.4814 20.4245 23.7505C19.9832 24.0196 19.5473 24.2188 19.1167 24.3479L18.6001 27.6094C18.557 27.8462 18.444 28.0399 18.261 28.1906C18.078 28.3413 17.8681 28.4167 17.6313 28.4167ZM15.5001 19.6979C16.6626 19.6979 17.6528 19.2889 18.4709 18.4708C19.289 17.6528 19.698 16.6625 19.698 15.5C19.698 14.3375 19.289 13.3472 18.4709 12.5292C17.6528 11.7111 16.6626 11.3021 15.5001 11.3021C14.3376 11.3021 13.3473 11.7111 12.5292 12.5292C11.7112 13.3472 11.3021 14.3375 11.3021 15.5C11.3021 16.6625 11.7112 17.6528 12.5292 18.4708C13.3473 19.2889 14.3376 19.6979 15.5001 19.6979ZM15.5001 17.7604C14.8758 17.7604 14.3429 17.5398 13.9016 17.0984C13.4603 16.6571 13.2396 16.1243 13.2396 15.5C13.2396 14.8757 13.4603 14.3429 13.9016 13.9016C14.3429 13.4603 14.8758 13.2396 15.5001 13.2396C16.1244 13.2396 16.6572 13.4603 17.0985 13.9016C17.5398 14.3429 17.7605 14.8757 17.7605 15.5C17.7605 16.1243 17.5398 16.6571 17.0985 17.0984C16.6572 17.5398 16.1244 17.7604 15.5001 17.7604ZM14.0792 26.4792H16.9209L17.373 22.8625C18.0834 22.6903 18.7561 22.4212 19.3912 22.0552C20.0263 21.6892 20.6021 21.2479 21.1188 20.7313L24.5417 22.2167L25.8334 19.8917L22.798 17.6636C22.8841 17.2976 22.9541 16.937 23.0079 16.5818C23.0617 16.2266 23.0886 15.866 23.0886 15.5C23.0886 15.134 23.0671 14.7734 23.024 14.4182C22.981 14.063 22.9056 13.7024 22.798 13.3365L25.8334 11.1083L24.5417 8.78334L21.1188 10.2688C20.6237 9.70904 20.064 9.24081 19.4396 8.86407C18.8153 8.48734 18.1265 8.24515 17.373 8.13751L16.9209 4.52084H14.0792L13.6271 8.13751C12.8952 8.2882 12.2117 8.54654 11.5766 8.91251C10.9416 9.27848 10.3765 9.73057 9.88131 10.2688L6.4584 8.78334L5.16673 11.1083L8.20215 13.3365C8.11604 13.7024 8.04607 14.063 7.99225 14.4182C7.93843 14.7734 7.91152 15.134 7.91152 15.5C7.91152 15.866 7.93843 16.2266 7.99225 16.5818C8.04607 16.937 8.11604 17.2976 8.20215 17.6636L5.16673 19.8917L6.4584 22.2167L9.88131 20.7313C10.398 21.2479 10.9738 21.6892 11.6089 22.0552C12.244 22.4212 12.9167 22.6903 13.6271 22.8625L14.0792 26.4792Z" fill="black"/>
</svg>
