<svg width="31" height="31" viewBox="0 0 31 31" fill="none" xmlns="http://www.w3.org/2000/svg">
<path d="M15.5073 24.025C16.0075 24.025 16.4327 23.842 16.7828 23.4761C17.1329 23.1101 17.308 22.6795 17.308 22.1844H13.659C13.659 22.6795 13.842 23.1101 14.208 23.4761C14.574 23.842 15.0071 24.025 15.5073 24.025ZM12.4643 18.3094V14.2083C12.4643 13.3381 12.7549 12.5931 13.3361 11.9733C13.9174 11.3536 14.6332 11.0438 15.4835 11.0438C16.3339 11.0438 17.0497 11.3536 17.6309 11.9733C18.2122 12.5931 18.5028 13.3381 18.5028 14.2083V18.3094H12.4643ZM15.5083 28.4167C13.7272 28.4167 12.0534 28.0776 10.4869 27.3995C8.92042 26.7214 7.55054 25.7957 6.37728 24.6224C5.20401 23.4491 4.27832 22.0785 3.6002 20.5104C2.92207 18.9423 2.58301 17.2668 2.58301 15.4839C2.58301 13.701 2.92207 12.0255 3.6002 10.4574C4.27832 8.88927 5.20401 7.52397 6.37728 6.36147C7.55054 5.19897 8.92123 4.27866 10.4893 3.60053C12.0574 2.92241 13.7329 2.58334 15.5158 2.58334C17.2987 2.58334 18.9742 2.92241 20.5423 3.60053C22.1104 4.27866 23.4757 5.19897 24.6382 6.36147C25.8007 7.52397 26.721 8.89098 27.3992 10.4625C28.0773 12.034 28.4163 13.7103 28.4163 15.4914C28.4163 17.2725 28.0773 18.9463 27.3992 20.5128C26.721 22.0793 25.8007 23.4472 24.6382 24.6165C23.4757 25.7858 22.1087 26.7115 20.5372 27.3935C18.9656 28.0756 17.2893 28.4167 15.5083 28.4167ZM15.5158 26.4792C18.562 26.4792 21.1507 25.4082 23.282 23.2662C25.4132 21.1241 26.4788 18.53 26.4788 15.4839C26.4788 12.4377 25.4152 9.84897 23.288 7.71772C21.1608 5.58647 18.5647 4.52084 15.4997 4.52084C12.4643 4.52084 9.87554 5.58445 7.73353 7.71165C5.59151 9.83887 4.52051 12.435 4.52051 15.5C4.52051 18.5354 5.59151 21.1241 7.73353 23.2662C9.87554 25.4082 12.4696 26.4792 15.5158 26.4792ZM10.2038 20.2469H20.7632C21.0377 20.2469 21.2678 20.1535 21.4534 19.9668C21.6391 19.78 21.732 19.5486 21.732 19.2725C21.732 18.9964 21.6391 18.7668 21.4534 18.5839C21.2678 18.4009 21.0377 18.3094 20.7632 18.3094H20.4403V14.5958C20.4403 13.3042 20.1012 12.1148 19.4231 11.0276C18.745 9.94046 17.7924 9.27848 16.5653 9.04168V8.07293C16.5653 7.771 16.4632 7.51791 16.2591 7.31365C16.055 7.10942 15.802 7.0073 15.5003 7.0073C15.1985 7.0073 14.94 7.10942 14.7247 7.31365C14.5094 7.51791 14.4018 7.771 14.4018 8.07293V9.04168C13.1747 9.27848 12.2221 9.91355 11.5439 10.9469C10.8658 11.9802 10.5268 13.132 10.5268 14.4021V18.3094H10.2038C9.92936 18.3094 9.69928 18.4028 9.51361 18.5895C9.32793 18.7763 9.23509 19.0077 9.23509 19.2838C9.23509 19.5599 9.32793 19.7894 9.51361 19.9724C9.69928 20.1554 9.92936 20.2469 10.2038 20.2469Z" fill="black"/>
</svg>
