<svg width="34" height="35" viewBox="0 0 34 35" fill="none" xmlns="http://www.w3.org/2000/svg">
<path d="M17.0003 17.4635C15.442 17.4635 14.167 16.9531 13.1753 15.9323C12.1837 14.9114 11.6878 13.5989 11.6878 11.9948C11.6878 10.3906 12.1837 9.07811 13.1753 8.05728C14.167 7.03645 15.442 6.52603 17.0003 6.52603C18.5587 6.52603 19.8337 7.03645 20.8253 8.05728C21.817 9.07811 22.3128 10.3906 22.3128 11.9948C22.3128 13.5989 21.817 14.9114 20.8253 15.9323C19.8337 16.9531 18.5587 17.4635 17.0003 17.4635ZM26.2087 29.1667H7.79199C7.20762 29.1667 6.70736 28.9525 6.29121 28.5241C5.87507 28.0957 5.66699 27.5807 5.66699 26.9792V25.7396C5.66699 24.816 5.8913 24.026 6.33991 23.3698C6.78852 22.7135 7.36699 22.2153 8.07533 21.875C9.65727 21.1458 11.1743 20.5989 12.6264 20.2344C14.0785 19.8698 15.5364 19.6875 17.0003 19.6875C18.4642 19.6875 19.9163 19.8759 21.3566 20.2526C22.7969 20.6293 24.307 21.1725 25.8871 21.8821C26.6262 22.2254 27.2187 22.7233 27.6647 23.3756C28.1107 24.028 28.3337 24.816 28.3337 25.7396V26.9792C28.3337 27.5807 28.1256 28.0957 27.7094 28.5241C27.2933 28.9525 26.793 29.1667 26.2087 29.1667ZM7.79199 26.9792H26.2087V25.7396C26.2087 25.3507 26.0965 24.98 25.8722 24.6276C25.6479 24.2752 25.3705 24.0139 25.0399 23.8437C23.5288 23.0903 22.1475 22.5738 20.8962 22.2943C19.6448 22.0147 18.3462 21.875 17.0003 21.875C15.6545 21.875 14.3441 22.0147 13.0691 22.2943C11.7941 22.5738 10.4128 23.0903 8.92533 23.8437C8.59477 24.0139 8.32324 24.2752 8.11074 24.6276C7.89824 24.98 7.79199 25.3507 7.79199 25.7396V26.9792ZM17.0003 15.276C17.9212 15.276 18.6826 14.9661 19.2847 14.3463C19.8868 13.7266 20.1878 12.9427 20.1878 11.9948C20.1878 11.0469 19.8868 10.263 19.2847 9.64322C18.6826 9.02343 17.9212 8.71353 17.0003 8.71353C16.0795 8.71353 15.318 9.02343 14.716 9.64322C14.1139 10.263 13.8128 11.0469 13.8128 11.9948C13.8128 12.9427 14.1139 13.7266 14.716 14.3463C15.318 14.9661 16.0795 15.276 17.0003 15.276Z" fill="black"/>
</svg>
